<svg width="120" height="120" viewBox="0 0 120 120" fill="none" xmlns="http://www.w3.org/2000/svg">
<path fill-rule="evenodd" clip-rule="evenodd" d="M60 120C93.1371 120 120 93.1371 120 60C120 26.8629 93.1371 0 60 0C26.8628 0 0 26.8629 0 60C0 93.1371 26.8628 120 60 120ZM78.7179 27.9505C79.629 24.7142 76.4883 22.8004 73.62 24.8439L33.5793 53.3688C30.4686 55.5849 30.9579 60 34.3143 60H44.8581V59.9184H65.4075L48.6636 65.8263L41.2821 92.0496C40.371 95.286 43.5114 97.1997 46.38 95.1561L86.4207 66.6315C89.5314 64.4154 89.0418 60 85.6857 60H69.6963L78.7179 27.9505Z" fill="#F5841F"/>
</svg>
